<?xml version="1.0" encoding="UTF-8"?>
<svg width="145px" height="145px" viewBox="0 0 145 145" version="1.1" xmlns="http://www.w3.org/2000/svg" xmlns:xlink="http://www.w3.org/1999/xlink">
    <title>Group 13</title>
    <g id="Page-1" stroke="none" stroke-width="1" fill="none" fill-rule="evenodd">
        <g id="1.-Intro" transform="translate(-103.000000, -131.000000)">
            <g id="Group-13" transform="translate(103.000000, 131.000000)">
                <path d="M24.0671375,119.742066 C25.1702332,120.588805 25.3299918,122.234803 24.3587605,123.242449 L19.2464829,128.562925 C17.0478992,130.847274 14.154492,132 11.2813717,132 C8.38796451,132 5.49455736,130.847274 3.29597366,128.562925 C-1.09865789,123.988951 -1.09865789,116.563497 3.29597366,111.971058 L8.39557207,106.666409 C9.36426754,105.658763 10.9441033,105.822308 11.7581118,106.964482 C13.4774195,109.370171 15.3869161,111.667709 17.461243,113.828081 C19.53557,115.985815 21.7417612,117.958902 24.0671375,119.742066 Z" id="Stroke-1" fill="#FFE099"></path>
                <path d="M127.701327,20.0243336 L122.600496,25.3333712 C121.631567,26.3413495 120.053885,26.1777509 119.237144,25.0351996 C117.51742,22.631356 115.607462,20.3462533 113.53517,18.1878076 C111.455269,16.0240845 109.243471,14.0345148 106.922606,12.2375692 C105.826853,11.387912 105.674665,9.74664893 106.641058,8.74130931 L111.746962,3.42963301 C116.165484,-1.143211 123.305633,-1.143211 127.701327,3.42963301 C132.099558,8.02358653 132.099558,15.4514895 127.701327,20.0243336 Z" id="Stroke-3" fill="#FFE099"></path>
                <path d="M24.3587605,8.74728112 C25.3299918,9.75767354 25.1702332,11.4038481 24.0671375,12.2506783 C21.7569764,14.0261199 19.5507851,16.0099713 17.4815299,18.1652992 C15.4021312,20.3285415 13.4900988,22.628965 11.7606477,25.0428268 C10.9441033,26.179848 9.36933924,26.338134 8.40317963,25.3330178 L3.29597366,20.0198838 C-1.09865789,15.4480559 -1.09865789,8.02444163 3.29597366,3.42887089 C7.71342788,-1.14295696 14.8493155,-1.14295696 19.2464829,3.42887089 L24.3587605,8.74728112 Z" id="Stroke-5" fill="#FFE099"></path>
                <path d="M65,51.5 C65,57.2978376 69.4768612,62 75,62 C80.5231388,62 85,57.2978376 85,51.5 C85,45.7021624 80.5231388,41 75,41 C69.4768612,41 65,45.7021624 65,51.5 Z" id="Stroke-7" fill="#3C3B38"></path>
                <path d="M91.1826303,91.8367921 L91.0537999,91.9383248 C91.0280338,91.9929962 90.9765017,92.0164268 90.9507356,92.0971323 C84.0969608,98.9414782 75.0015378,102.742446 65.3392612,102.742446 C55.6512185,102.742446 46.5557955,98.9675122 39.6762546,92.0710983 C39.6504885,92.0424609 39.5731903,91.9929962 39.5474243,91.9383248 C39.4958921,91.9122907 39.470126,91.8628261 39.44436,91.8367921 L39.4185939,91.8081546 C32.6421173,84.8831033 28.906037,75.721729 28.906037,65.9589687 C28.906037,56.1155029 32.6678833,46.8734232 39.5731903,39.9249412 C46.4269652,32.9738559 55.5996864,29.1468538 65.3392612,29.1468538 C75.0015378,29.1468538 84.0711947,32.9191844 90.9507356,39.8208051 C90.9765017,39.8442357 91.0537999,39.8989072 91.079566,39.9249412 C91.1310981,39.9744059 91.1568642,40.0030433 91.2083963,40.052508 C97.984873,46.9801627 101.746719,56.1701744 101.746719,65.9589687 C101.746719,75.721729 98.010639,84.8831033 91.1826303,91.8367921 Z M144.698759,121.408844 C143.075497,111.726789 134.263501,104.645534 124.549692,104.929304 C124.49816,104.929304 124.420862,104.955339 124.36933,104.955339 C122.114798,104.957942 119.489236,104.452882 117.791252,102.841375 C116.005663,101.143957 115.572793,98.1240097 116.716806,95.947565 C116.819871,95.7679302 116.871403,95.6872247 116.871403,95.6872247 C121.947319,86.7315193 124.652756,76.5548179 124.652756,65.9589687 C124.652756,53.8505425 121.148571,42.3174684 114.603989,32.5312774 C112.491171,29.3551261 110.017628,26.3612129 107.260658,23.5729686 C104.529455,20.789931 101.540591,18.3166984 98.3971301,16.1558741 C88.7090875,9.56666177 77.2947181,6 65.3392612,6 C53.3580382,6 41.9436689,9.56666177 32.2556262,16.1793048 C29.1121656,18.2906644 26.1233013,20.789931 23.3663318,23.5495379 C20.6351282,26.3351789 18.1615854,29.3551261 16.0230016,32.5312774 C9.50418564,42.3174684 6,53.8505425 6,65.9589687 C6,78.0361541 9.50418564,89.5718317 16.0230016,99.360626 C18.1615854,102.534174 20.6093622,105.556725 23.3663318,108.313728 C26.0975353,111.099369 29.0863995,113.575205 32.2556262,115.709995 C41.9436689,122.348672 53.3580382,125.886697 65.3392612,125.886697 C74.9757717,125.886697 84.2773233,123.569668 92.6255302,119.198555 C92.7028284,119.172521 92.8316588,119.068385 93.0893195,118.964249 C93.2439159,118.860113 93.4242784,118.782011 93.5788749,118.701305 C95.6659266,117.63391 98.706323,117.011697 100.973737,117.816148 C103.885303,118.831475 105.225139,123.25726 105.379735,126.01947 C105.4828,127.789784 105.817759,129.6382 106.513442,131.564718 C108.986985,138.619939 115.24814,143.904847 122.591471,144.839469 C135.860997,146.50825 146.99194,134.923108 144.698759,121.408844 Z" id="Stroke-9" fill="#FFE099"></path>
                <polygon id="Stroke-11" stroke="#FFFFFF" stroke-width="1.3824" points="92.485 119.485 92.515 119.485 92.485 119.515"></polygon>
            </g>
        </g>
    </g>
</svg>